<svg width="39" height="49" viewBox="0 0 39 49" fill="none" xmlns="http://www.w3.org/2000/svg">
<path d="M7.00543 3.92333H2.71499V0.26001H0V10.2022H2.71499V6.21768H7.00543V10.2022H9.71277V0.26001H7.00543V3.92333Z" fill="white"/>
<path d="M13.6285 4.06866C13.8579 2.73028 14.5998 2.02668 15.8005 2.02668C17.0012 2.02668 17.8425 2.85265 17.8807 4.06866H13.6285ZM15.8081 0C12.8255 0 10.8141 2.06492 10.8141 5.1623C10.8141 8.25968 12.7949 10.4317 15.8923 10.4317C18.3625 10.4317 20.068 9.29978 20.7028 7.15074H17.766C17.4983 7.93847 16.8788 8.32851 15.9458 8.32851C14.5462 8.32851 13.705 7.49489 13.6285 6.0571H20.6951C20.6951 5.70529 20.7181 5.58293 20.7181 5.42232C20.7257 2.06492 18.829 0 15.8081 0Z" fill="white"/>
<path d="M25.3451 0.176032C24.3814 0.367228 21.9188 1.10907 21.9188 4.87181V10.2024H24.6644V5.7972C24.6644 4.16821 24.8938 3.40342 25.5668 2.91396C25.9798 2.5851 26.584 2.39391 27.28 2.39391C27.5706 2.39391 27.6929 2.41685 28.0218 2.47803V0.221919C28.0218 0.221919 26.9205 -0.129882 25.3374 0.176032" fill="white"/>
<path d="M33.467 8.3591C32.0216 8.3591 31.1727 7.18133 31.1727 5.22348C31.1727 3.26563 31.9987 2.08786 33.467 2.08786C34.9354 2.08786 35.7385 3.22739 35.7385 5.20818C35.7385 7.18898 34.9125 8.36675 33.467 8.36675M33.467 0C30.385 0 28.4042 2.04198 28.4042 5.22348C28.4042 8.40498 30.385 10.4317 33.467 10.4317C36.5491 10.4317 38.507 8.38204 38.507 5.22348C38.507 2.06492 36.5185 0 33.467 0Z" fill="white"/>
<path d="M38.4993 17.4296C38.5375 19.3951 36.8856 21.0011 34.9201 21.0011H28.4118C28.1823 21.0011 27.9988 21.1847 27.9988 21.4141V45.4207C27.9988 47.3709 26.408 49.0228 24.4578 48.9999C23.3259 48.9846 22.3164 48.4339 21.6893 47.585L0.70361 19.6016C0.191204 18.9209 -0.0764709 18.0414 0.0229511 17.1007C0.198852 15.4641 1.53723 14.1563 3.17386 14.011C4.4587 13.8963 5.61353 14.4699 6.30948 15.4105L20.7563 34.6678C20.8327 34.7749 21.001 34.7137 21.001 34.5837V17.4908C21.001 15.5558 22.5688 13.988 24.5037 13.988H35.0042C36.9162 13.988 38.4687 15.5176 38.5069 17.4219L38.4993 17.4296Z" fill="white"/>
</svg>
